<svg xmlns="http://www.w3.org/2000/svg" xmlns:xlink="http://www.w3.org/1999/xlink" aria-hidden="true" style="position:absolute;width:0;height:0;overflow:hidden;">
<symbol id="icon-file-text" viewBox="0 0 24 24"><path d="M6 22a2 2 0 0 1-2-2V4a2 2 0 0 1 2-2h8a2.4 2.4 0 0 1 1.704.706l3.588 3.588A2.4 2.4 0 0 1 20 8v12a2 2 0 0 1-2 2z" />
  <path d="M14 2v5a1 1 0 0 0 1 1h5" />
  <path d="M10 9H8" />
  <path d="M16 13H8" />
  <path d="M16 17H8" /></symbol>
<symbol id="icon-rows" viewBox="0 0 24 24"><rect width="18" height="18" x="3" y="3" rx="2" />
  <path d="M3 12h18" /></symbol>
<symbol id="icon-columns" viewBox="0 0 24 24"><rect width="18" height="18" x="3" y="3" rx="2" />
  <path d="M12 3v18" /></symbol>
<symbol id="icon-layout-grid" viewBox="0 0 24 24"><rect width="7" height="7" x="3" y="3" rx="1" />
  <rect width="7" height="7" x="14" y="3" rx="1" />
  <rect width="7" height="7" x="14" y="14" rx="1" />
  <rect width="7" height="7" x="3" y="14" rx="1" /></symbol>
<symbol id="icon-clipboard-list" viewBox="0 0 24 24"><rect width="8" height="4" x="8" y="2" rx="1" ry="1" />
  <path d="M16 4h2a2 2 0 0 1 2 2v14a2 2 0 0 1-2 2H6a2 2 0 0 1-2-2V6a2 2 0 0 1 2-2h2" />
  <path d="M12 11h4" />
  <path d="M12 16h4" />
  <path d="M8 11h.01" />
  <path d="M8 16h.01" /></symbol>
<symbol id="icon-heading-1" viewBox="0 0 24 24"><path d="M4 12h8" />
  <path d="M4 18V6" />
  <path d="M12 18V6" />
  <path d="m17 12 3-2v8" /></symbol>
<symbol id="icon-pilcrow" viewBox="0 0 24 24"><path d="M13 4v16" />
  <path d="M17 4v16" />
  <path d="M19 4H9.5a4.5 4.5 0 0 0 0 9H13" /></symbol>
<symbol id="icon-type" viewBox="0 0 24 24"><path d="M12 4v16" />
  <path d="M4 7V5a1 1 0 0 1 1-1h14a1 1 0 0 1 1 1v2" />
  <path d="M9 20h6" /></symbol>
<symbol id="icon-closed-captioning" viewBox="0 0 24 24"><rect width="18" height="14" x="3" y="5" rx="2" ry="2" />
  <path d="M7 15h4M15 15h2M7 11h2M13 11h4" /></symbol>
<symbol id="icon-quote" viewBox="0 0 24 24"><path d="M16 3a2 2 0 0 0-2 2v6a2 2 0 0 0 2 2 1 1 0 0 1 1 1v1a2 2 0 0 1-2 2 1 1 0 0 0-1 1v2a1 1 0 0 0 1 1 6 6 0 0 0 6-6V5a2 2 0 0 0-2-2z" />
  <path d="M5 3a2 2 0 0 0-2 2v6a2 2 0 0 0 2 2 1 1 0 0 1 1 1v1a2 2 0 0 1-2 2 1 1 0 0 0-1 1v2a1 1 0 0 0 1 1 6 6 0 0 0 6-6V5a2 2 0 0 0-2-2z" /></symbol>
<symbol id="icon-link" viewBox="0 0 24 24"><path d="M10 13a5 5 0 0 0 7.54.54l3-3a5 5 0 0 0-7.07-7.07l-1.72 1.71" />
  <path d="M14 11a5 5 0 0 0-7.54-.54l-3 3a5 5 0 0 0 7.07 7.07l1.71-1.71" /></symbol>
<symbol id="icon-image" viewBox="0 0 24 24"><rect width="18" height="18" x="3" y="3" rx="2" ry="2" />
  <circle cx="9" cy="9" r="2" />
  <path d="m21 15-3.086-3.086a2 2 0 0 0-2.828 0L6 21" /></symbol>
<symbol id="icon-video" viewBox="0 0 24 24"><path d="m16 13 5.223 3.482a.5.5 0 0 0 .777-.416V7.87a.5.5 0 0 0-.752-.432L16 10.5" />
  <rect x="2" y="6" width="14" height="12" rx="2" /></symbol>
<symbol id="icon-film" viewBox="0 0 24 24"><rect width="18" height="18" x="3" y="3" rx="2" />
  <path d="M7 3v18" />
  <path d="M3 7.5h4" />
  <path d="M3 12h18" />
  <path d="M3 16.5h4" />
  <path d="M17 3v18" />
  <path d="M17 7.5h4" />
  <path d="M17 16.5h4" /></symbol>
<symbol id="icon-mouse-pointer-square" viewBox="0 0 24 24"><path d="M12.586 12.586 19 19" />
  <path d="M3.688 3.037a.497.497 0 0 0-.651.651l6.5 15.999a.501.501 0 0 0 .947-.062l1.569-6.083a2 2 0 0 1 1.448-1.479l6.124-1.579a.5.5 0 0 0 .063-.947z" /></symbol>
<symbol id="icon-credit-card" viewBox="0 0 24 24"><rect width="20" height="14" x="2" y="5" rx="2" />
  <line x1="2" x2="22" y1="10" y2="10" /></symbol>
<symbol id="icon-folder-tabs" viewBox="0 0 24 24"><path d="M20 20a2 2 0 0 0 2-2V8a2 2 0 0 0-2-2h-7.9a2 2 0 0 1-1.69-.9L9.6 3.9A2 2 0 0 0 7.93 3H4a2 2 0 0 0-2 2v13a2 2 0 0 0 2 2Z" /></symbol>
<symbol id="icon-chevrons-down-up" viewBox="0 0 24 24"><path d="m7 15 5 5 5-5" />
  <path d="m7 9 5-5 5 5" /></symbol>
<symbol id="icon-gallery-horizontal" viewBox="0 0 24 24"><path d="M2 3v18" />
  <rect width="12" height="18" x="6" y="3" rx="2" />
  <path d="M22 3v18" /></symbol>
<symbol id="icon-chevrons-left-right-ellipsis" viewBox="0 0 24 24"><path d="m7 7-5 5 5 5"/><path d="M8 12h.01"/><path d="M12 12h.01"/><path d="M16 12h.01"/><path d="m17 7 5 5-5 5"/></symbol>
<symbol id="icon-panorama-display" viewBox="0 0 24 24"><path d="M21.54,5.16a1,1,0,0,0-1-.07A21.27,21.27,0,0,1,12,6.73,21.27,21.27,0,0,1,3.42,5.09a1,1,0,0,0-1,.07A1,1,0,0,0,2,6V18a1,1,0,0,0,.46.84,1,1,0,0,0,1,.07A21.27,21.27,0,0,1,12,17.27a21.27,21.27,0,0,1,8.58,1.64A1.06,1.06,0,0,0,21,19a1,1,0,0,0,.54-.16A1,1,0,0,0,22,18V6A1,1,0,0,0,21.54,5.16ZM20,16.52a24.77,24.77,0,0,0-8-1.25,24.77,24.77,0,0,0-8,1.25v-9a24.77,24.77,0,0,0,8,1.25,24.77,24.77,0,0,0,8-1.25Z"/></symbol>
<symbol id="icon-menu" viewBox="0 0 24 24"><path d="M4 5h16" />
  <path d="M4 12h16" />
  <path d="M4 19h16" /></symbol>
<symbol id="icon-wrap-text" viewBox="0 0 24 24"><path d="m16 16-3 3 3 3" />
  <path d="M3 12h14.5a1 1 0 0 1 0 7H13" />
  <path d="M3 19h6" />
  <path d="M3 5h18" /></symbol>
<symbol id="icon-chevron-down" viewBox="0 0 24 24"><path d="m6 9 6 6 6-6" /></symbol>
<symbol id="icon-chevron-up" viewBox="0 0 24 24"><path d="m18 15-6-6-6 6" /></symbol>
<symbol id="icon-plus" viewBox="0 0 24 24"><path d="M5 12h14"/><path d="M12 5v14"/></symbol>
<symbol id="icon-list-end" viewBox="0 0 24 24"><path d="M16 12H3"/><path d="M16 6H3"/><path d="M10 18H3"/><path d="M21 6v10a2 2 0 0 1-2 2h-5"/><path d="m16 16-2 2 2 2"/></symbol>
<symbol id="icon-list-plus" viewBox="0 0 24 24"><path d="M11 12H3"/><path d="M16 6H3"/><path d="M16 18H3"/><path d="M18 9v6"/><path d="M21 12h-6"/></symbol>
<symbol id="icon-check-square" viewBox="0 0 24 24"><path d="M21 10.656V19a2 2 0 0 1-2 2H5a2 2 0 0 1-2-2V5a2 2 0 0 1 2-2h12.344" />
  <path d="m9 11 3 3L22 4" /></symbol>
<symbol id="icon-circle-dot" viewBox="0 0 24 24"><circle cx="12" cy="12" r="10" />
  <circle cx="12" cy="12" r="1" /></symbol>
<symbol id="icon-calendar" viewBox="0 0 24 24"><path d="M8 2v4" />
  <path d="M16 2v4" />
  <rect width="18" height="18" x="3" y="4" rx="2" />
  <path d="M3 10h18" /></symbol>
<symbol id="icon-layout" viewBox="0 0 24 24"><rect width="18" height="18" x="3" y="3" rx="2" />
  <path d="M3 9h18" />
  <path d="M9 21V9" /></symbol>
<symbol id="icon-settings" viewBox="0 0 24 24"><path d="M9.671 4.136a2.34 2.34 0 0 1 4.659 0 2.34 2.34 0 0 0 3.319 1.915 2.34 2.34 0 0 1 2.33 4.033 2.34 2.34 0 0 0 0 3.831 2.34 2.34 0 0 1-2.33 4.033 2.34 2.34 0 0 0-3.319 1.915 2.34 2.34 0 0 1-4.659 0 2.34 2.34 0 0 0-3.32-1.915 2.34 2.34 0 0 1-2.33-4.033 2.34 2.34 0 0 0 0-3.831A2.34 2.34 0 0 1 6.35 6.051a2.34 2.34 0 0 0 3.319-1.915" />
  <circle cx="12" cy="12" r="3" /></symbol>
<symbol id="icon-square" viewBox="0 0 24 24"><rect width="18" height="18" x="3" y="3" rx="2" /></symbol>
<symbol id="icon-layers" viewBox="0 0 24 24"><path d="M12.83 2.18a2 2 0 0 0-1.66 0L2.6 6.08a1 1 0 0 0 0 1.83l8.58 3.91a2 2 0 0 0 1.66 0l8.58-3.9a1 1 0 0 0 0-1.83z" />
  <path d="M2 12a1 1 0 0 0 .58.91l8.6 3.91a2 2 0 0 0 1.65 0l8.58-3.9A1 1 0 0 0 22 12" />
  <path d="M2 17a1 1 0 0 0 .58.91l8.6 3.91a2 2 0 0 0 1.65 0l8.58-3.9A1 1 0 0 0 22 17" /></symbol>
<symbol id="icon-sliders" viewBox="0 0 24 24"><path d="M10 8h4" />
  <path d="M12 21v-9" />
  <path d="M12 8V3" />
  <path d="M17 16h4" />
  <path d="M19 12V3" />
  <path d="M19 21v-5" />
  <path d="M3 14h4" />
  <path d="M5 10V3" />
  <path d="M5 21v-7" /></symbol>
<symbol id="icon-edit-2" viewBox="0 0 24 24"><path d="M21.174 6.812a1 1 0 0 0-3.986-3.987L3.842 16.174a2 2 0 0 0-.5.83l-1.321 4.352a.5.5 0 0 0 .623.622l4.353-1.32a2 2 0 0 0 .83-.497z" /></symbol>
<symbol id="icon-file-plus" viewBox="0 0 24 24"><path d="M6 22a2 2 0 0 1-2-2V4a2 2 0 0 1 2-2h8a2.4 2.4 0 0 1 1.704.706l3.588 3.588A2.4 2.4 0 0 1 20 8v12a2 2 0 0 1-2 2z" />
  <path d="M14 2v5a1 1 0 0 0 1 1h5" />
  <path d="M9 15h6" />
  <path d="M12 18v-6" /></symbol>
<symbol id="icon-edit" viewBox="0 0 24 24"><path d="M12 3H5a2 2 0 0 0-2 2v14a2 2 0 0 0 2 2h14a2 2 0 0 0 2-2v-7" />
  <path d="M18.375 2.625a1 1 0 0 1 3 3l-9.013 9.014a2 2 0 0 1-.853.505l-2.873.84a.5.5 0 0 1-.62-.62l.84-2.873a2 2 0 0 1 .506-.852z" /></symbol>
<symbol id="icon-box" viewBox="0 0 24 24"><path d="M21 8a2 2 0 0 0-1-1.73l-7-4a2 2 0 0 0-2 0l-7 4A2 2 0 0 0 3 8v8a2 2 0 0 0 1 1.73l7 4a2 2 0 0 0 2 0l7-4A2 2 0 0 0 21 16Z" />
  <path d="m3.3 7 8.7 5 8.7-5" />
  <path d="M12 22V12" /></symbol>
<symbol id="icon-maximize" viewBox="0 0 24 24"><path d="M8 3H5a2 2 0 0 0-2 2v3" />
  <path d="M21 8V5a2 2 0 0 0-2-2h-3" />
  <path d="M3 16v3a2 2 0 0 0 2 2h3" />
  <path d="M16 21h3a2 2 0 0 0 2-2v-3" /></symbol>
<symbol id="icon-download" viewBox="0 0 24 24"><path d="M12 15V3" />
  <path d="M21 15v4a2 2 0 0 1-2 2H5a2 2 0 0 1-2-2v-4" />
  <path d="m7 10 5 5 5-5" /></symbol>
<symbol id="icon-help-circle" viewBox="0 0 24 24"><circle cx="12" cy="12" r="10" />
  <path d="M9.09 9a3 3 0 0 1 5.83 1c0 2-3 3-3 3" />
  <path d="M12 17h.01" /></symbol>
<symbol id="icon-trash-2" viewBox="0 0 24 24"><path d="M10 11v6" />
  <path d="M14 11v6" />
  <path d="M19 6v14a2 2 0 0 1-2 2H7a2 2 0 0 1-2-2V6" />
  <path d="M3 6h18" />
  <path d="M8 6V4a2 2 0 0 1 2-2h4a2 2 0 0 1 2 2v2" /></symbol>
<symbol id="icon-chevrons-down" viewBox="0 0 24 24"><path d="m7 6 5 5 5-5" />
  <path d="m7 13 5 5 5-5" /></symbol>
<symbol id="icon-circle" viewBox="0 0 24 24"><circle cx="12" cy="12" r="10" /></symbol>
<symbol id="icon-grid" viewBox="0 0 24 24"><rect width="18" height="18" x="3" y="3" rx="2" />
  <path d="M3 9h18" />
  <path d="M3 15h18" />
  <path d="M9 3v18" />
  <path d="M15 3v18" /></symbol>
<symbol id="icon-clear-canvas" viewBox="0 0 24 24"><circle cx="12" cy="12" r="10" />
  <path d="m15 9-6 6" />
  <path d="m9 9 6 6" /></symbol>
<symbol id="icon-layout-row" viewBox="0 0 512 512"><g fill="currentColor" fill-rule="nonzero">
    <g>
            <rect x="30" y="100" width="460" height="280" stroke="currentcolor" stroke-width="30" fill="none" stroke-linecap="round" stroke-linejoin="round"/>
    
    		<rect x="70" y="160" width="100" height="160" stroke="currentcolor" stroke-width="8" fill="currentcolor" stroke-linecap="round" stroke-linejoin="round"/>
    
    		<rect x="210.857" y="160" width="100" height="160" stroke="currentcolor" stroke-width="8" fill="currentcolor" stroke-linecap="round" stroke-linejoin="round"/>
    
    		<rect x="350.714" y="160" width="100" height="160" stroke="currentcolor" stroke-width="8" fill="currentcolor" stroke-linecap="round" stroke-linejoin="round"/>
    </g></g></symbol>
<symbol id="icon-layout-column" viewBox="0 0 35 35"><g fill="currentColor" fill-rule="nonzero">
    <g>
           <g>
            <rect x="1" y="3" width="33" height="30" stroke-width="2" fill="none" stoke="currentcolor" stroke-linecap="round" stroke-linejoin="round"/>
    		<rect x="5" y="20" width="25" height="8" stroke-linecap="round" stroke-linejoin="round"/>
    		<rect x="5" y="7" width="25" height="8" stroke-linecap="round" stroke-linejoin="round"/>
            
    </g>
    </g></g></symbol>
<symbol id="icon-swift-sites" viewBox="0 0 24 24"><path fill="currentColor" d="m22.999 10c0 4.397-1.021 7.169-1.063 7.285-.104.275-.324.492-.602.591-.122.043-2.895 1.005-8.335 1.113v2.011h3.001c.553 0 1 .447 1 1s-.447 1-1 1h-8c-.553 0-1-.447-1-1s.447-1 1-1h3v-2.011c-5.44-.108-8.214-1.07-8.336-1.113-.277-.099-.498-.315-.602-.591-.043-.116-1.063-2.888-1.063-7.285s1.021-7.169 1.063-7.285c.104-.275.324.492.602-.591.129-.046 3.232-1.124 9.335-1.124.724 0 1.405.015 2.043.042.552.023.98.489.957 1.041s-.484.997-1.041.957c-.612-.025-1.265-.04-1.959-.04-4.427 0-7.18.6-8.209.875-.263.904-.791 3.101-.791 6.125s.528 5.219.792 6.125c1.026.274 3.78.875 8.208.875s7.18-.6 8.209-.875c.263-.904.791-3.101.791-6.125 0-.553.447-1 1-1s1 .447 1 1zm-9.238-3.958c.554-.552 1.092-1.069 1.598-1.541.973-.901 1.978-1.777 3.073-2.678.924-.755 2.174-1.431 3.671.065 1.547 1.547.771 2.844.054 3.686-.572.697-1.509 1.804-2.647 3.035-.475.51-1.006 1.067-1.559 1.623.099 1.081-.378 2.161-1.474 3.256-1.269 1.269-3.514 1.508-5.021 1.508-.771 0-1.348-.062-1.506-.081-.458-.056-.818-.416-.874-.874-.056-.466-.49-4.61 1.427-6.527 1.097-1.097 2.177-1.573 3.259-1.473zm1.302 2.887c-1.234-1.234-1.912-1.234-3.146 0-.828.828-.951 2.807-.911 4.061 1.416.053 3.288-.145 4.058-.914 1.235-1.235 1.235-1.911 0-3.146zm.695-2.045c.239.183.479.391.719.631.241.241.449.48.632.719.327-.339.644-.672.936-.985 1.104-1.193 2.013-2.269 2.58-2.959.366-.43.376-.579.376-.578.025-.255-.423-.748-.709-.712.004 0-.149.009-.591.37-1.062.873-2.038 1.724-2.979 2.596-.309.288-.633.597-.963.918z" /></symbol>
<symbol id="icon-paintbrush" viewBox="0 0 24 24">
  <path d="m14.622 17.897-10.68-2.913"/>
  <path d="M18.376 2.622a1 1 0 1 1 3.002 3.002L17.36 9.643a.5.5 0 0 0 0 .707l.944.944a2.41 2.41 0 0 1 0 3.408l-.944.944a.5.5 0 0 1-.707 0L8.354 7.348a.5.5 0 0 1 0-.707l.944-.944a2.41 2.41 0 0 1 3.408 0l.944.944a.5.5 0 0 0 .707 0z"/>
  <path d="M9 8c-1.804 2.71-3.97 3.46-6.583 3.948a.507.507 0 0 0-.302.819l7.32 8.883a1 1 0 0 0 1.185.204C12.735 20.405 16 16.792 16 15"/>
</symbol>
<symbol id="icon-move" viewBox="0 0 24 24">
  <path d="M12 2v20"/><path d="m15 19-3 3-3-3"/>
  <path d="m19 9 3 3-3 3"/><path d="M2 12h20"/>
  <path d="m5 9-3 3 3 3"/><path d="m9 5 3-3 3 3"/>
</symbol>
<symbol id="icon-align-left" viewBox="0 0 24 24">
  <path d="M15 12H3"/><path d="M17 6H3"/><path d="M21 18H3"/>
</symbol>
<symbol id="icon-align-center" viewBox="0 0 24 24">
  <path d="M17 12H7"/><path d="M19 6H5"/><path d="M21 18H3"/>
</symbol>
<symbol id="icon-align-right" viewBox="0 0 24 24">
  <path d="M21 12H9"/><path d="M21 6H7"/><path d="M21 18H3"/>
</symbol>
<symbol id="icon-text" viewBox="0 0 24 24">
  <path d="M17 6.1H3"/>
  <path d="M21 12.1H3"/>
  <path d="M15.1 18H3"/>
</symbol>
<symbol id="icon-x" viewBox="0 0 24 24">
  <path d="M18 6 6 18" stroke="currentColor" stroke-width="2" stroke-linecap="round"/>
  <path d="m6 6 12 12" stroke="currentColor" stroke-width="2" stroke-linecap="round"/>
</symbol>
<symbol id="icon-monitor" viewBox="0 0 24 24">
  <rect width="20" height="14" x="2" y="3" rx="2"/>
  <path d="M8 21h8"/>
  <path d="M12 17v4"/>
</symbol>
<symbol id="icon-tablet" viewBox="0 0 24 24">
  <rect width="20" height="14" x="2" y="5" rx="2"/>
  <path d="M12 14h.01"/>
</symbol>
<symbol id="icon-tablet-portrait" viewBox="0 0 24 24">
  <rect width="14" height="20" x="5" y="2" rx="2"/>
  <path d="M12 18h.01"/>
</symbol>
<symbol id="icon-smartphone" viewBox="0 0 24 24">
  <rect width="14" height="20" x="5" y="2" rx="2"/>
  <path d="M12 18h.01"/>
</symbol>
<symbol id="icon-eye" viewBox="0 0 24 24">
  <path d="M2.062 12.348a1 1 0 0 1 0-.696 10.75 10.75 0 0 1 19.876 0 1 1 0 0 1 0 .696 10.75 10.75 0 0 1-19.876 0"/>
  <circle cx="12" cy="12" r="3"/>
</symbol>
<symbol id="icon-globe" viewBox="0 0 24 24">
  <circle cx="12" cy="12" r="10"/>
  <path d="M12 2a14.5 14.5 0 0 0 0 20 14.5 14.5 0 0 0 0-20"/>
  <path d="M2 12h20"/>
</symbol>
<symbol id="icon-code" viewBox="0 0 24 24">
  <path d="m16 18 6-6-6-6"/>
  <path d="m8 6-6 6 6 6"/>
</symbol>
<symbol id="icon-sparkles" viewBox="0 0 24 24">
  <path d="m12 3-1.912 5.813a2 2 0 0 1-1.275 1.275L3 12l5.813 1.912a2 2 0 0 1 1.275 1.275L12 21l1.912-5.813a2 2 0 0 1 1.275-1.275L21 12l-5.813-1.912a2 2 0 0 1-1.275-1.275L12 3Z"/>
  <path d="M5 3v4"/>
  <path d="M19 17v4"/>
  <path d="M3 5h4"/>
  <path d="M17 19h4"/>
</symbol>
<symbol id="icon-search" viewBox="0 0 24 24"><circle cx="11" cy="11" r="8"/><path d="m21 21-4.3-4.3"/></symbol>
<symbol id="icon-upload" viewBox="0 0 24 24"><path d="M21 15v4a2 2 0 0 1-2 2H5a2 2 0 0 1-2-2v-4"/><polyline points="17 8 12 3 7 8"/><line x1="12" x2="12" y1="3" y2="15"/></symbol>
<symbol id="icon-rectangle-horizontal" viewBox="0 0 24 24"><rect width="20" height="12" x="2" y="6" rx="2" /></symbol>
<symbol id="icon-rectangle-vertical" viewBox="0 0 24 24"><rect width="12" height="20" x="6" y="2" rx="2" /></symbol>
<!-- Marketing component icons -->
<symbol id="icon-star" viewBox="0 0 24 24">
    <polygon points="12 2 15.09 8.26 22 9.27 17 14.14 18.18 21.02 12 17.77 5.82 21.02 7 14.14 2 9.27 8.91 8.26 12 2" fill="none" stroke="currentColor" stroke-width="2" stroke-linecap="round" stroke-linejoin="round"/>
</symbol>
<symbol id="icon-star-filled" viewBox="0 0 24 24">
    <polygon points="12 2 15.09 8.26 22 9.27 17 14.14 18.18 21.02 12 17.77 5.82 21.02 7 14.14 2 9.27 8.91 8.26 12 2" fill="currentColor" stroke="currentColor" stroke-width="2" stroke-linecap="round" stroke-linejoin="round"/>
</symbol>
<symbol id="icon-star-half" viewBox="0 0 24 24">
    <defs><clipPath id="star-half-clip"><rect x="0" y="0" width="12" height="24"/></clipPath></defs>
    <polygon points="12 2 15.09 8.26 22 9.27 17 14.14 18.18 21.02 12 17.77 5.82 21.02 7 14.14 2 9.27 8.91 8.26 12 2" fill="currentColor" clip-path="url(#star-half-clip)" stroke="none"/>
    <polygon points="12 2 15.09 8.26 22 9.27 17 14.14 18.18 21.02 12 17.77 5.82 21.02 7 14.14 2 9.27 8.91 8.26 12 2" fill="none" stroke="currentColor" stroke-width="2" stroke-linecap="round" stroke-linejoin="round"/>
</symbol>
<symbol id="icon-heart" viewBox="0 0 24 24">
    <path d="M19 14c1.49-1.46 3-3.21 3-5.5A5.5 5.5 0 0 0 16.5 3c-1.76 0-3 .5-4.5 2-1.5-1.5-2.74-2-4.5-2A5.5 5.5 0 0 0 2 8.5c0 2.3 1.5 4.05 3 5.5l7 7Z" fill="none" stroke="currentColor" stroke-width="2" stroke-linecap="round" stroke-linejoin="round"/>
</symbol>
<symbol id="icon-heart-filled" viewBox="0 0 24 24">
    <path d="M19 14c1.49-1.46 3-3.21 3-5.5A5.5 5.5 0 0 0 16.5 3c-1.76 0-3 .5-4.5 2-1.5-1.5-2.74-2-4.5-2A5.5 5.5 0 0 0 2 8.5c0 2.3 1.5 4.05 3 5.5l7 7Z" fill="currentColor" stroke="currentColor" stroke-width="2" stroke-linecap="round" stroke-linejoin="round"/>
</symbol>
<symbol id="icon-heart-half" viewBox="0 0 24 24">
    <defs><clipPath id="heart-half-clip"><rect x="0" y="0" width="12" height="24"/></clipPath></defs>
    <path d="M19 14c1.49-1.46 3-3.21 3-5.5A5.5 5.5 0 0 0 16.5 3c-1.76 0-3 .5-4.5 2-1.5-1.5-2.74-2-4.5-2A5.5 5.5 0 0 0 2 8.5c0 2.3 1.5 4.05 3 5.5l7 7Z" fill="currentColor" clip-path="url(#heart-half-clip)" stroke="none"/>
    <path d="M19 14c1.49-1.46 3-3.21 3-5.5A5.5 5.5 0 0 0 16.5 3c-1.76 0-3 .5-4.5 2-1.5-1.5-2.74-2-4.5-2A5.5 5.5 0 0 0 2 8.5c0 2.3 1.5 4.05 3 5.5l7 7Z" fill="none" stroke="currentColor" stroke-width="2" stroke-linecap="round" stroke-linejoin="round"/>
</symbol>
<symbol id="icon-checkmark" viewBox="0 0 24 24">
    <path d="M20 6 9 17l-5-5" fill="none" stroke="currentColor" stroke-width="2" stroke-linecap="round" stroke-linejoin="round"/>
</symbol>
<symbol id="icon-fire" viewBox="0 0 24 24">
    <path d="M8.5 14.5A2.5 2.5 0 0 0 11 12c0-1.38-.5-2-1-3-1.072-2.143-.224-4.054 2-6 .5 2.5 2 4.9 4 6.5 2 1.6 3 3.5 3 5.5a7 7 0 1 1-14 0c0-1.153.433-2.294 1-3a2.5 2.5 0 0 0 2.5 2.5z" fill="none" stroke="currentColor" stroke-width="2" stroke-linecap="round" stroke-linejoin="round"/>
</symbol>
<symbol id="icon-user" viewBox="0 0 24 24">
    <path d="M19 21v-2a4 4 0 0 0-4-4H9a4 4 0 0 0-4 4v2" fill="none" stroke="currentColor" stroke-width="2" stroke-linecap="round" stroke-linejoin="round"/>
    <circle cx="12" cy="7" r="4" fill="none" stroke="currentColor" stroke-width="2"/>
</symbol>
<symbol id="icon-chevron-right" viewBox="0 0 24 24">
    <path d="m9 18 6-6-6-6" fill="none" stroke="currentColor" stroke-width="2" stroke-linecap="round" stroke-linejoin="round"/>
</symbol>
<symbol id="icon-chevron-left" viewBox="0 0 24 24">
    <path d="m15 18-6-6 6-6" fill="none" stroke="currentColor" stroke-width="2" stroke-linecap="round" stroke-linejoin="round"/>
</symbol>
<symbol id="icon-arrow-right" viewBox="0 0 24 24">
    <path d="M5 12h14" fill="none" stroke="currentColor" stroke-width="2" stroke-linecap="round" stroke-linejoin="round"/>
    <path d="m12 5 7 7-7 7" fill="none" stroke="currentColor" stroke-width="2" stroke-linecap="round" stroke-linejoin="round"/>
</symbol>
<symbol id="icon-arrow-left" viewBox="0 0 24 24">
    <path d="m12 19-7-7 7-7" fill="none" stroke="currentColor" stroke-width="2" stroke-linecap="round" stroke-linejoin="round"/>
    <path d="M19 12H5" fill="none" stroke="currentColor" stroke-width="2" stroke-linecap="round" stroke-linejoin="round"/>
</symbol>
<symbol id="icon-phone" viewBox="0 0 24 24">
    <path d="M22 16.92v3a2 2 0 0 1-2.18 2 19.79 19.79 0 0 1-8.63-3.07 19.5 19.5 0 0 1-6-6 19.79 19.79 0 0 1-3.07-8.67A2 2 0 0 1 4.11 2h3a2 2 0 0 1 2 1.72 12.84 12.84 0 0 0 .7 2.81 2 2 0 0 1-.45 2.11L8.09 9.91a16 16 0 0 0 6 6l1.27-1.27a2 2 0 0 1 2.11-.45 12.84 12.84 0 0 0 2.81.7A2 2 0 0 1 22 16.92z" fill="none" stroke="currentColor" stroke-width="2" stroke-linecap="round" stroke-linejoin="round"/>
</symbol>
<symbol id="icon-mail" viewBox="0 0 24 24">
    <rect width="20" height="16" x="2" y="4" rx="2" fill="none" stroke="currentColor" stroke-width="2"/>
    <path d="m22 7-8.97 5.7a1.94 1.94 0 0 1-2.06 0L2 7" fill="none" stroke="currentColor" stroke-width="2" stroke-linecap="round" stroke-linejoin="round"/>
</symbol>
<symbol id="icon-map-pin" viewBox="0 0 24 24">
    <path d="M20 10c0 4.993-5.539 10.193-7.399 11.799a1 1 0 0 1-1.202 0C9.539 20.193 4 14.993 4 10a8 8 0 0 1 16 0" fill="none" stroke="currentColor" stroke-width="2" stroke-linecap="round" stroke-linejoin="round"/>
    <circle cx="12" cy="10" r="3" fill="none" stroke="currentColor" stroke-width="2"/>
</symbol>
<symbol id="icon-clock" viewBox="0 0 24 24">
    <circle cx="12" cy="12" r="10" fill="none" stroke="currentColor" stroke-width="2"/>
    <polyline points="12 6 12 12 16 14" fill="none" stroke="currentColor" stroke-width="2" stroke-linecap="round" stroke-linejoin="round"/>
</symbol>
<symbol id="icon-tag" viewBox="0 0 24 24">
    <path d="M12.586 2.586A2 2 0 0 0 11.172 2H4a2 2 0 0 0-2 2v7.172a2 2 0 0 0 .586 1.414l8.704 8.704a2.426 2.426 0 0 0 3.42 0l6.58-6.58a2.426 2.426 0 0 0 0-3.42z" fill="none" stroke="currentColor" stroke-width="2" stroke-linecap="round" stroke-linejoin="round"/>
    <circle cx="7.5" cy="7.5" r=".5" fill="currentColor"/>
</symbol>
<symbol id="icon-crosshair" viewBox="0 0 24 24">
    <circle cx="12" cy="12" r="10" fill="none" stroke="currentColor" stroke-width="2"/>
    <line x1="22" x2="18" y1="12" y2="12" stroke="currentColor" stroke-width="2" stroke-linecap="round"/>
    <line x1="6" x2="2" y1="12" y2="12" stroke="currentColor" stroke-width="2" stroke-linecap="round"/>
    <line x1="12" x2="12" y1="2" y2="6" stroke="currentColor" stroke-width="2" stroke-linecap="round"/>
    <line x1="12" x2="12" y1="18" y2="22" stroke="currentColor" stroke-width="2" stroke-linecap="round"/>
</symbol>
<symbol id="icon-play-circle" viewBox="0 0 24 24">
    <circle cx="12" cy="12" r="10" fill="none" stroke="currentColor" stroke-width="2"/>
    <polygon points="10 8 16 12 10 16 10 8" fill="currentColor" stroke="none"/>
</symbol>
<symbol id="icon-bar-chart" viewBox="0 0 24 24">
    <line x1="12" x2="12" y1="20" y2="10" stroke="currentColor" stroke-width="2" stroke-linecap="round"/>
    <line x1="18" x2="18" y1="20" y2="4" stroke="currentColor" stroke-width="2" stroke-linecap="round"/>
    <line x1="6" x2="6" y1="20" y2="16" stroke="currentColor" stroke-width="2" stroke-linecap="round"/>
</symbol>
<symbol id="icon-hash" viewBox="0 0 24 24">
    <line x1="4" x2="20" y1="9" y2="9" stroke="currentColor" stroke-width="2" stroke-linecap="round"/>
    <line x1="4" x2="20" y1="15" y2="15" stroke="currentColor" stroke-width="2" stroke-linecap="round"/>
    <line x1="10" x2="8" y1="3" y2="21" stroke="currentColor" stroke-width="2" stroke-linecap="round"/>
    <line x1="16" x2="14" y1="3" y2="21" stroke="currentColor" stroke-width="2" stroke-linecap="round"/>
</symbol>
<symbol id="icon-minus" viewBox="0 0 24 24">
    <path d="M5 12h14" fill="none" stroke="currentColor" stroke-width="2" stroke-linecap="round" stroke-linejoin="round"/>
</symbol>
<symbol id="icon-undo" viewBox="0 0 24 24">
  <polyline points="1 4 1 10 7 10" fill="none" stroke="currentColor" stroke-width="2" stroke-linecap="round" stroke-linejoin="round"/>
  <path d="M3.51 15a9 9 0 1 0 2.13-9.36L1 10" fill="none" stroke="currentColor" stroke-width="2" stroke-linecap="round" stroke-linejoin="round"/>
</symbol>
<symbol id="icon-redo" viewBox="0 0 24 24">
  <polyline points="23 4 23 10 17 10" fill="none" stroke="currentColor" stroke-width="2" stroke-linecap="round" stroke-linejoin="round"/>
  <path d="M20.49 15a9 9 0 1 1-2.12-9.36L23 10" fill="none" stroke="currentColor" stroke-width="2" stroke-linecap="round" stroke-linejoin="round"/>
</symbol>
<symbol id="icon-publish" viewBox="0 0 24 24">
  <defs><mask id="globe-mask"><rect width="24" height="24" fill="white"/><circle cx="18.78" cy="16.48" r="5.5" fill="black"/></mask></defs>
  <g mask="url(#globe-mask)" fill="none" stroke="currentColor" stroke-width="1.3"><circle cx="12" cy="12" r="10"/><ellipse cx="12" cy="12" rx="4" ry="10"/><line x1="2" y1="12" x2="22" y2="12"/><line x1="4" y1="6" x2="20" y2="6"/><line x1="4" y1="18" x2="20" y2="18"/></g>
  <g transform="translate(13.8, 11.5) scale(0.052)" fill="currentColor"><path d="M95.833,0C42.991,0,0,42.99,0,95.833s42.991,95.834,95.833,95.834s95.833-42.991,95.833-95.834S148.676,0,95.833,0z M150.862,79.646l-60.207,60.207c-2.56,2.56-5.963,3.969-9.583,3.969c-3.62,0-7.023-1.409-9.583-3.969l-30.685-30.685c-2.56-2.56-3.97-5.963-3.97-9.583c0-3.621,1.41-7.024,3.97-9.584c2.559-2.56,5.962-3.97,9.583-3.97c3.62,0,7.024,1.41,9.583,3.971l21.101,21.1l50.623-50.623c2.56-2.56,5.963-3.969,9.583-3.969c3.62,0,7.023,1.409,9.583,3.969C156.146,65.765,156.146,74.362,150.862,79.646z"/></g>
</symbol>
<symbol id="icon-layout-template" viewBox="0 0 24 24"><rect width="18" height="7" x="3" y="3" rx="1"/><rect width="9" height="7" x="3" y="14" rx="1"/><rect width="5" height="7" x="16" y="14" rx="1"/></symbol>
<symbol id="icon-files" viewBox="0 0 24 24"><path d="M20 7h-3a2 2 0 0 1-2-2V2"/><path d="M9 18a2 2 0 0 1-2-2V4a2 2 0 0 1 2-2h7l4 4v10a2 2 0 0 1-2 2Z"/><path d="M3 7.6v12.8A1.6 1.6 0 0 0 4.6 22h9.8"/></symbol>
<symbol id="icon-copy" viewBox="0 0 24 24"><rect width="14" height="14" x="8" y="8" rx="2" ry="2"/><path d="M4 16c-1.1 0-2-.9-2-2V4c0-1.1.9-2 2-2h10c1.1 0 2 .9 2 2"/></symbol>
<symbol id="icon-clipboard-paste" viewBox="0 0 24 24"><path d="M15 2H9a1 1 0 0 0-1 1v2c0 .6.4 1 1 1h6c.6 0 1-.4 1-1V3c0-.6-.4-1-1-1Z"/><path d="M8 4H6a2 2 0 0 0-2 2v14a2 2 0 0 0 2 2h12a2 2 0 0 0 2-2M16 4h2a2 2 0 0 1 2 2v2"/><path d="M21 14H11"/><path d="m15 10-4 4 4 4"/></symbol>
<symbol id="icon-send" viewBox="0 0 24 24" fill="none" stroke="currentColor" stroke-width="2" stroke-linecap="round" stroke-linejoin="round"><path d="M14.536 21.686a.5.5 0 0 0 .937-.024l6.5-19a.496.496 0 0 0-.635-.635l-19 6.5a.5.5 0 0 0-.024.937l7.93 3.18a2 2 0 0 1 1.112 1.11z"/><path d="m21.854 2.147-10.94 10.939"/></symbol>
<symbol id="icon-check" viewBox="0 0 24 24" fill="none" stroke="currentColor" stroke-width="2" stroke-linecap="round" stroke-linejoin="round"><path d="M20 6 9 17l-5-5"/></symbol>
<symbol id="icon-check-circle" viewBox="0 0 24 24" fill="none" stroke="currentColor" stroke-width="2" stroke-linecap="round" stroke-linejoin="round"><circle cx="12" cy="12" r="10"/><path d="m9 12 2 2 4-4"/></symbol>
<symbol id="icon-lightbulb" viewBox="0 0 24 24" fill="none" stroke="currentColor" stroke-width="2" stroke-linecap="round" stroke-linejoin="round"><path d="M15 14c.2-1 .7-1.7 1.5-2.5 1-.9 1.5-2.2 1.5-3.5A6 6 0 0 0 6 8c0 1 .2 2.2 1.5 3.5.7.7 1.3 1.5 1.5 2.5"/><path d="M9 18h6"/><path d="M10 22h4"/></symbol>
<symbol id="icon-building-2" viewBox="0 0 24 24" fill="none" stroke="currentColor" stroke-width="2" stroke-linecap="round" stroke-linejoin="round"><path d="M6 22V4a2 2 0 0 1 2-2h8a2 2 0 0 1 2 2v18Z"/><path d="M6 12H4a2 2 0 0 0-2 2v6a2 2 0 0 0 2 2h2"/><path d="M18 9h2a2 2 0 0 1 2 2v9a2 2 0 0 1-2 2h-2"/><path d="M10 6h4"/><path d="M10 10h4"/><path d="M10 14h4"/><path d="M10 18h4"/></symbol>
<symbol id="icon-target" viewBox="0 0 24 24" fill="none" stroke="currentColor" stroke-width="2" stroke-linecap="round" stroke-linejoin="round"><circle cx="12" cy="12" r="10"/><circle cx="12" cy="12" r="6"/><circle cx="12" cy="12" r="2"/></symbol>
<symbol id="icon-list-checks" viewBox="0 0 24 24" fill="none" stroke="currentColor" stroke-width="2" stroke-linecap="round" stroke-linejoin="round"><path d="m3 17 2 2 4-4"/><path d="m3 7 2 2 4-4"/><path d="M13 6h8"/><path d="M13 12h8"/><path d="M13 18h8"/></symbol>
<symbol id="icon-message-square" viewBox="0 0 24 24" fill="none" stroke="currentColor" stroke-width="2" stroke-linecap="round" stroke-linejoin="round"><path d="M21 15a2 2 0 0 1-2 2H7l-4 4V5a2 2 0 0 1 2-2h14a2 2 0 0 1 2 2z"/></symbol>
<symbol id="icon-palette" viewBox="0 0 24 24" fill="none" stroke="currentColor" stroke-width="2" stroke-linecap="round" stroke-linejoin="round"><circle cx="13.5" cy="6.5" r=".5" fill="currentColor"/><circle cx="17.5" cy="10.5" r=".5" fill="currentColor"/><circle cx="8.5" cy="7.5" r=".5" fill="currentColor"/><circle cx="6.5" cy="12.5" r=".5" fill="currentColor"/><path d="M12 2C6.5 2 2 6.5 2 12s4.5 10 10 10c.926 0 1.648-.746 1.648-1.688 0-.437-.18-.835-.437-1.125-.29-.289-.438-.652-.438-1.125a1.64 1.64 0 0 1 1.668-1.668h1.996c3.051 0 5.555-2.503 5.555-5.554C21.965 6.012 17.461 2 12 2z"/></symbol>
</svg>
